<svg width="21" height="20" viewBox="0 0 21 20" fill="none" xmlns="http://www.w3.org/2000/svg">
<path d="M0 9.88215C0 4.51576 4.4894 0.162598 10.0193 0.162598C15.5684 0.162598 20.0193 4.53452 20.0193 9.95721C20.0193 15.3236 15.5106 19.658 9.98073 19.658C4.47013 19.6392 0 15.2673 0 9.88215ZM3.00578 9.50688C3.68015 9.50688 4.35453 9.50688 5.0289 9.50688C5.18304 9.50688 5.22158 9.46935 5.22158 9.31924C5.24085 8.09961 5.39499 6.87997 5.66474 5.69787C5.70328 5.49147 5.66474 5.45394 5.47206 5.39765C4.58574 5.17248 3.75723 4.8535 2.96724 4.42194C2.83237 4.34689 2.77457 4.36565 2.67823 4.47823C1.57996 5.92303 0.963391 7.51794 0.828516 9.31924C0.828516 9.48812 0.867052 9.50688 1.02119 9.50688C1.6763 9.50688 2.35067 9.50688 3.00578 9.50688ZM16.9942 9.50688C17.6686 9.50688 18.3622 9.50688 19.0366 9.50688C19.1522 9.50688 19.21 9.50688 19.1908 9.35677C19.1715 9.00026 19.1137 8.64375 19.0559 8.28725C18.7861 6.87997 18.2081 5.60405 17.3218 4.4407C17.264 4.34689 17.2062 4.34689 17.1098 4.40318C16.2813 4.87227 15.395 5.19125 14.4701 5.43518C14.3353 5.4727 14.316 5.52899 14.3545 5.64158C14.6435 6.86121 14.7784 8.09961 14.817 9.33801C14.817 9.48812 14.8748 9.50688 15.0096 9.50688C15.684 9.50688 16.3391 9.50688 17.0135 9.50688H16.9942ZM3.00578 10.295C2.33141 10.295 1.65703 10.295 0.982659 10.295C0.847784 10.295 0.809248 10.3137 0.809248 10.4638C0.847784 11.1581 0.982659 11.8336 1.1946 12.5091C1.52216 13.5411 2.00385 14.4792 2.67823 15.3424C2.73603 15.4174 2.77457 15.4925 2.89017 15.4174C3.71869 14.9483 4.60501 14.6293 5.52986 14.3854C5.66474 14.3479 5.68401 14.2916 5.66474 14.1603C5.37572 12.9406 5.24085 11.7022 5.20231 10.4638C5.20231 10.3325 5.14451 10.3137 5.0289 10.3137C4.35453 10.3137 3.68015 10.3137 3.00578 10.3137V10.295ZM16.9942 10.295C16.3198 10.295 15.6647 10.295 14.9904 10.295C14.8362 10.295 14.7977 10.3325 14.7977 10.4826C14.7592 11.721 14.6243 12.9406 14.3353 14.1415C14.2967 14.2728 14.3353 14.3291 14.4701 14.3667C15.3757 14.6106 16.262 14.9296 17.0713 15.3799C17.1869 15.4362 17.2447 15.4174 17.3025 15.3236C18.4008 13.8788 19.0366 12.2651 19.1522 10.4826C19.1522 10.3137 19.1137 10.2762 18.9595 10.295C18.3044 10.295 17.6301 10.295 16.975 10.295H16.9942ZM9.59538 7.78063C9.59538 7.25525 9.59538 6.7111 9.59538 6.18572C9.59538 6.03561 9.55684 5.99808 9.4027 5.99808C8.49711 5.97932 7.59152 5.8855 6.7052 5.69787C6.53179 5.66034 6.45472 5.69787 6.41618 5.8855C6.1657 7.03008 6.03083 8.19343 5.99229 9.35677C5.99229 9.48812 6.03083 9.50688 6.1657 9.50688C7.2447 9.50688 8.34297 9.50688 9.42196 9.50688C9.57611 9.50688 9.59538 9.45059 9.59538 9.31924C9.59538 8.79386 9.59538 8.28725 9.59538 7.76186V7.78063ZM9.59538 12.04C9.59538 11.5146 9.59538 10.9704 9.59538 10.4451C9.59538 10.3325 9.57611 10.295 9.44123 10.295C8.34297 10.295 7.2447 10.295 6.14643 10.295C6.03083 10.295 5.99229 10.3137 5.99229 10.4263C6.03083 11.6084 6.1657 12.7905 6.43545 13.9539C6.47399 14.104 6.53179 14.1227 6.68593 14.104C7.59152 13.9163 8.51638 13.8225 9.44123 13.8038C9.57611 13.8038 9.61464 13.7662 9.61464 13.6349C9.61464 13.1095 9.61464 12.5654 9.61464 12.04H9.59538ZM10.4046 7.76186C10.4046 8.28725 10.4046 8.83139 10.4046 9.35677C10.4046 9.46935 10.4046 9.50688 10.5588 9.50688C11.657 9.50688 12.7553 9.50688 13.8536 9.50688C13.9692 9.50688 14.0077 9.48812 14.0077 9.37554C13.9692 8.19343 13.8343 7.01132 13.5645 5.84797C13.526 5.69787 13.4682 5.6791 13.3141 5.69787C12.4085 5.8855 11.4836 5.96056 10.5588 5.99808C10.4239 5.99808 10.3854 6.03561 10.3854 6.16696C10.3854 6.69234 10.3854 7.23648 10.3854 7.76186H10.4046ZM12.2158 10.295C11.6763 10.295 11.1368 10.295 10.5973 10.295C10.4432 10.295 10.4046 10.3512 10.4046 10.4826C10.4046 11.5146 10.4046 12.5654 10.4046 13.5974C10.4046 13.7475 10.4432 13.8038 10.6166 13.8038C11.5222 13.8225 12.4277 13.9163 13.3141 14.104C13.5067 14.1415 13.5453 14.0852 13.5838 13.9163C13.8343 12.7718 13.9692 11.6084 14.0077 10.4451C14.0077 10.3137 13.9692 10.2762 13.8536 10.2762C13.3141 10.2762 12.7746 10.2762 12.2351 10.2762L12.2158 10.295ZM9.59538 3.12725C9.59538 2.47052 9.59538 1.83256 9.59538 1.17583C9.59538 1.02572 9.55684 1.00696 9.42196 1.04449C8.921 1.23212 8.51638 1.56987 8.18882 1.96391C7.51445 2.77074 7.10983 3.70892 6.763 4.68463C6.68593 4.87227 6.76301 4.92856 6.93642 4.94732C7.76493 5.07867 8.59345 5.17248 9.44123 5.21001C9.59538 5.21001 9.61464 5.15372 9.61464 5.04114C9.61464 4.40318 9.61464 3.76521 9.61464 3.10849L9.59538 3.12725ZM10.7514 5.21001C11.5992 5.19125 12.3314 5.07867 13.0829 4.94732C13.1599 4.94732 13.3333 4.98485 13.2563 4.77845C12.948 3.84027 12.5626 2.92085 11.946 2.13278C11.58 1.66369 11.1561 1.26965 10.5973 1.04449C10.4432 0.988197 10.4046 1.00696 10.4046 1.17583C10.4046 2.3767 10.4046 3.55881 10.4046 4.75969C10.4046 5.0599 10.5267 5.20376 10.7707 5.19125L10.7514 5.21001ZM9.59538 16.7121C9.59538 16.0554 9.59538 15.3987 9.59538 14.7419C9.59538 14.6293 9.55684 14.5918 9.44123 14.5918C9.09441 14.6293 8.72832 14.6293 8.3815 14.6669C7.86127 14.7232 7.34104 14.7795 6.82081 14.892C6.74374 14.892 6.68593 14.9108 6.72447 15.0234C7.03275 15.9803 7.43738 16.9185 8.07322 17.7253C8.43931 18.1757 8.84393 18.5697 9.4027 18.7761C9.53757 18.8324 9.59538 18.8136 9.59538 18.6448C9.59538 18.0068 9.59538 17.3688 9.59538 16.7121ZM10.4046 16.7121C10.4046 17.3501 10.4046 17.988 10.4046 18.6448C10.4046 18.8324 10.4624 18.8512 10.6166 18.7761C11.0983 18.5885 11.4836 18.2695 11.8112 17.8755C12.5048 17.0686 12.9094 16.1117 13.2563 15.1172C13.3333 14.9296 13.2563 14.892 13.0829 14.8733C12.2543 14.7419 11.4258 14.6481 10.578 14.6106C10.4239 14.6106 10.4046 14.6481 10.4046 14.7795C10.4046 15.4174 10.4046 16.0554 10.4046 16.7121ZM12.2351 18.6072C12.2736 18.6072 12.2929 18.6072 12.3121 18.6072C13.9692 18.1944 15.3757 17.3876 16.5896 16.2055C16.7052 16.0929 16.6281 16.0741 16.5511 16.0179C15.8189 15.6426 15.0289 15.3611 14.2389 15.136C14.1233 15.0984 14.104 15.1547 14.0848 15.2298C13.6994 16.4494 13.1792 17.6128 12.2736 18.6072H12.2351ZM12.2351 1.25089C12.5434 1.58863 12.7938 1.90761 13.0058 2.26412C13.4682 2.9959 13.7958 3.78398 14.0462 4.60958C14.0848 4.72216 14.104 4.75968 14.2389 4.72216C15.0289 4.49699 15.7996 4.2343 16.5125 3.85903C16.6474 3.78398 16.6474 3.74645 16.5511 3.65263C15.8574 2.97714 15.0867 2.41423 14.2197 1.98267C13.5838 1.66369 12.948 1.41976 12.2158 1.25089H12.2351ZM7.76493 18.6072C7.59152 18.3821 7.43738 18.2132 7.3025 18.0068C6.7052 17.1812 6.30058 16.243 5.99229 15.2673C5.95376 15.1172 5.89595 15.0984 5.74181 15.136C4.9711 15.3611 4.21965 15.6238 3.52601 15.9803C3.39114 16.0554 3.3526 16.0929 3.48748 16.2243C4.39306 17.1061 5.45279 17.7816 6.6474 18.2507C6.99422 18.3821 7.36031 18.5134 7.7842 18.5885L7.76493 18.6072ZM7.76493 1.26965C7.68786 1.26965 7.64932 1.26965 7.63006 1.26965C6.03083 1.70121 4.62428 2.48929 3.44894 3.65263C3.33333 3.76521 3.4104 3.78398 3.50674 3.84027C4.21965 4.21554 4.9711 4.47823 5.74181 4.70339C5.89595 4.74092 5.95376 4.70339 5.99229 4.57205C6.30058 3.59634 6.7052 2.6394 7.34104 1.8138C7.47591 1.64492 7.61079 1.47605 7.76493 1.26965Z" fill="white"/>
</svg>
