<svg width="307" height="35" viewBox="0 0 307 35" fill="none" xmlns="http://www.w3.org/2000/svg">
<g clip-path="url(#clip0_244_125)">
<path d="M17.8644 34.4237H0V33.2712C4.61017 33.2712 6.33898 32.1186 6.33898 28.661V9.0678C6.33898 6.76271 5.18644 5.61017 3.45763 5.61017C1.72881 5.61017 1.72881 5.61017 0 6.18644V5.0339L9.22034 1H10.3729V28.661C10.3729 32.1186 12.678 33.2712 16.7119 33.2712V34.4237H17.8644Z" fill="white"/>
<path d="M25.3546 34.4236C27.0834 24.627 29.9648 12.5253 38.0326 6.18634H25.3546C23.0495 6.18634 21.3207 6.76261 20.1682 10.2202H19.0156L21.897 1.57617H42.0665V2.72871C33.4224 11.3728 31.1173 25.2033 31.1173 34.4236H25.3546Z" fill="white"/>
<path d="M42.0664 30.9659C42.0664 29.2371 43.7952 27.5083 45.524 27.5083C47.2528 27.5083 48.9817 29.2371 48.9817 30.9659C48.9817 32.6947 47.2528 34.4236 45.524 34.4236C43.7952 34.4236 42.0664 32.6947 42.0664 30.9659Z" fill="white"/>
<path d="M54.168 17.7119C54.168 6.76271 58.7781 1 66.8459 1C74.9137 1 79.5239 7.33898 79.5239 17.7119C79.5239 28.0847 74.9137 34.4237 66.8459 34.4237C58.7781 34.4237 54.168 28.0847 54.168 17.7119ZM74.3375 17.7119C74.3375 10.7966 74.3375 2.72881 66.8459 2.72881C59.3544 2.72881 59.3544 10.7966 59.3544 17.7119C59.3544 24.6271 59.3544 32.6949 66.8459 32.6949C74.3375 32.6949 74.3375 24.6271 74.3375 17.7119Z" fill="white"/>
<path d="M107.761 15.4069C107.761 26.9323 100.846 35.0001 90.4733 35.0001C80.1004 35.0001 85.8632 35.0001 84.1343 33.8476V32.1187C86.4394 32.1187 87.592 32.695 89.3208 32.695C97.3886 32.695 102.575 26.9323 103.151 15.9831C101.422 19.4408 98.5411 21.1696 94.5072 21.1696C88.7445 21.1696 84.7106 17.1357 84.7106 11.373C84.7106 5.61027 89.3208 0.423828 96.236 0.423828C103.151 0.423828 108.338 5.61027 108.338 14.8306L107.761 15.4069ZM103.151 13.6781C103.151 6.76281 100.27 2.72891 95.6598 2.72891C91.0496 2.72891 89.3208 6.18654 89.3208 11.373C89.3208 16.5594 91.6259 19.4408 96.236 19.4408C100.846 19.4408 101.999 17.712 103.151 13.6781Z" fill="white"/>
<path d="M136.002 18.2881V20.5932H113.527V18.2881H136.002Z" fill="white"/>
<path d="M137.73 34.4236V33.2711L144.069 26.9321C150.985 20.0168 153.29 17.1355 153.29 11.3728C153.29 5.61007 151.561 3.88126 146.951 3.88126C142.341 3.88126 140.612 5.61007 139.459 11.9491H138.307C138.307 5.0338 143.493 1.57617 149.256 1.57617C155.019 1.57617 158.476 4.45753 158.476 10.2202C158.476 15.983 154.442 21.1694 148.103 26.9321L144.069 30.3897H155.019C157.324 30.3897 158.476 30.3897 159.629 26.3558H160.781L158.476 34.4236H138.307H137.73Z" fill="white"/>
<path d="M169.999 34.4235C171.728 24.6269 174.609 12.5252 182.677 6.18624H169.999C167.694 6.18624 165.965 6.76251 164.813 10.2201H163.66L165.965 2.15234H186.135V3.30489C177.491 11.949 175.186 25.7795 175.186 34.9998H169.423L169.999 34.4235Z" fill="white"/>
<path d="M186.711 30.9659C186.711 29.2371 188.44 27.5083 190.169 27.5083C191.897 27.5083 193.626 29.2371 193.626 30.9659C193.626 32.6947 191.897 34.4236 190.169 34.4236C188.44 34.4236 186.711 32.6947 186.711 30.9659Z" fill="white"/>
<path d="M216.679 34.4237H199.391V33.2712C204.001 33.2712 205.73 32.1186 205.73 28.661V9.0678C205.73 6.76271 204.577 5.61017 202.848 5.61017C201.119 5.61017 201.119 5.61017 199.391 6.18644V5.0339L208.611 1H209.764V28.661C209.764 32.1186 212.069 33.2712 216.103 33.2712V34.4237H216.679Z" fill="white"/>
<path d="M239.151 34.4237H221.863V33.2712C226.473 33.2712 228.202 32.1186 228.202 28.661V9.0678C228.202 6.76271 227.05 5.61017 225.321 5.61017C223.592 5.61017 223.592 5.61017 221.863 6.18644V5.0339L231.084 1H232.236V28.661C232.236 32.1186 234.541 33.2712 238.575 33.2712V34.4237H239.151Z" fill="white"/>
<path d="M244.34 30.9659C244.34 29.2371 246.069 27.5083 247.797 27.5083C249.526 27.5083 251.255 29.2371 251.255 30.9659C251.255 32.6947 249.526 34.4236 247.797 34.4236C246.069 34.4236 244.34 32.6947 244.34 30.9659Z" fill="white"/>
<path d="M257.016 34.4236V33.2711L263.355 26.9321C270.27 20.0168 272.575 17.1355 272.575 11.3728C272.575 5.61007 270.846 3.88126 266.236 3.88126C261.626 3.88126 259.897 5.61007 258.744 11.9491H257.592C257.592 5.0338 262.778 1.57617 268.541 1.57617C274.304 1.57617 277.761 4.45753 277.761 10.2202C277.761 15.983 273.728 21.1694 267.389 26.9321L263.355 30.3897H274.304C276.609 30.3897 277.761 30.3897 278.914 26.3558H280.066L277.761 34.4236H257.592H257.016Z" fill="white"/>
<path d="M283.527 34.4236V33.2711L289.866 26.9321C296.782 20.0168 299.087 17.1355 299.087 11.3728C299.087 5.61007 297.358 3.88126 292.748 3.88126C288.138 3.88126 286.409 5.61007 285.256 11.9491H284.104C284.104 5.0338 289.29 1.57617 295.053 1.57617C300.815 1.57617 304.273 4.45753 304.273 10.2202C304.273 15.983 300.239 21.1694 293.9 26.9321L289.866 30.3897H300.815C303.121 30.3897 304.273 30.3897 305.426 26.3558H306.578L304.273 34.4236H284.104H283.527Z" fill="white"/>
</g>
<defs>
<clipPath id="clip0_244_125">
<rect width="307" height="35" fill="white"/>
</clipPath>
</defs>
</svg>
